<svg xmlns="http://www.w3.org/2000/svg" xmlns:xlink="http://www.w3.org/1999/xlink" width="500" zoomAndPan="magnify" viewBox="0 0 375 374.999991" height="500" preserveAspectRatio="xMidYMid meet" version="1.0"><defs><clipPath id="id1"><path d="M 3.351562 3.351562 L 369.351562 3.351562 L 369.351562 369.351562 L 3.351562 369.351562 Z M 3.351562 3.351562 " clip-rule="nonzero"/></clipPath><clipPath id="id2"><path d="M 67 47 L 289 47 L 289 313 L 67 313 Z M 67 47 " clip-rule="nonzero"/></clipPath><clipPath id="id3"><path d="M 73.484375 37.5 L 304.226562 48.417969 L 291.25 322.609375 L 60.507812 311.691406 Z M 73.484375 37.5 " clip-rule="nonzero"/></clipPath><clipPath id="id4"><path d="M 73.484375 37.5 L 304.226562 48.417969 L 291.25 322.609375 L 60.507812 311.691406 Z M 73.484375 37.5 " clip-rule="nonzero"/></clipPath></defs><g clip-path="url(#id1)"><path fill="#2d3290" d="M 369.351562 186.351562 C 369.351562 189.347656 369.277344 192.339844 369.132812 195.332031 C 368.984375 198.324219 368.765625 201.308594 368.472656 204.289062 C 368.175781 207.269531 367.8125 210.242188 367.371094 213.203125 C 366.933594 216.167969 366.417969 219.117188 365.835938 222.054688 C 365.25 224.992188 364.59375 227.914062 363.867188 230.816406 C 363.140625 233.722656 362.339844 236.609375 361.472656 239.472656 C 360.601562 242.339844 359.664062 245.183594 358.65625 248.003906 C 357.644531 250.824219 356.566406 253.617188 355.421875 256.382812 C 354.277344 259.148438 353.0625 261.886719 351.78125 264.59375 C 350.5 267.300781 349.15625 269.976562 347.742188 272.617188 C 346.332031 275.257812 344.855469 277.863281 343.316406 280.433594 C 341.777344 283 340.175781 285.53125 338.511719 288.019531 C 336.847656 290.511719 335.121094 292.960938 333.339844 295.363281 C 331.554688 297.769531 329.710938 300.128906 327.8125 302.445312 C 325.914062 304.761719 323.957031 307.027344 321.945312 309.246094 C 319.933594 311.464844 317.871094 313.632812 315.753906 315.753906 C 313.632812 317.871094 311.464844 319.933594 309.246094 321.945312 C 307.027344 323.957031 304.761719 325.914062 302.445312 327.8125 C 300.128906 329.710938 297.769531 331.554688 295.363281 333.339844 C 292.960938 335.121094 290.511719 336.847656 288.019531 338.511719 C 285.53125 340.175781 283 341.777344 280.433594 343.316406 C 277.863281 344.855469 275.257812 346.332031 272.617188 347.742188 C 269.976562 349.15625 267.300781 350.5 264.59375 351.78125 C 261.886719 353.0625 259.148438 354.277344 256.382812 355.421875 C 253.617188 356.566406 250.824219 357.644531 248.003906 358.65625 C 245.183594 359.664062 242.339844 360.601562 239.472656 361.472656 C 236.609375 362.339844 233.722656 363.140625 230.816406 363.867188 C 227.914062 364.59375 224.992188 365.25 222.054688 365.835938 C 219.117188 366.417969 216.167969 366.933594 213.203125 367.371094 C 210.242188 367.8125 207.269531 368.175781 204.289062 368.472656 C 201.308594 368.765625 198.324219 368.984375 195.332031 369.132812 C 192.339844 369.277344 189.347656 369.351562 186.351562 369.351562 C 183.355469 369.351562 180.363281 369.277344 177.371094 369.132812 C 174.382812 368.984375 171.394531 368.765625 168.414062 368.472656 C 165.433594 368.175781 162.460938 367.8125 159.5 367.371094 C 156.539062 366.933594 153.585938 366.417969 150.652344 365.835938 C 147.714844 365.25 144.792969 364.59375 141.886719 363.867188 C 138.980469 363.140625 136.097656 362.339844 133.230469 361.472656 C 130.363281 360.601562 127.519531 359.664062 124.699219 358.65625 C 121.882812 357.644531 119.085938 356.566406 116.320312 355.421875 C 113.554688 354.277344 110.816406 353.0625 108.109375 351.78125 C 105.402344 350.5 102.726562 349.15625 100.085938 347.742188 C 97.445312 346.332031 94.839844 344.855469 92.269531 343.316406 C 89.703125 341.777344 87.171875 340.175781 84.683594 338.511719 C 82.191406 336.847656 79.746094 335.121094 77.339844 333.339844 C 74.933594 331.554688 72.574219 329.710938 70.257812 327.8125 C 67.941406 325.914062 65.675781 323.957031 63.457031 321.945312 C 61.238281 319.933594 59.070312 317.871094 56.953125 315.753906 C 54.832031 313.632812 52.769531 311.464844 50.757812 309.246094 C 48.746094 307.027344 46.789062 304.761719 44.890625 302.445312 C 42.992188 300.128906 41.148438 297.769531 39.363281 295.363281 C 37.582031 292.960938 35.855469 290.511719 34.191406 288.019531 C 32.527344 285.53125 30.925781 283 29.386719 280.433594 C 27.847656 277.863281 26.371094 275.257812 24.960938 272.617188 C 23.546875 269.976562 22.203125 267.300781 20.921875 264.59375 C 19.640625 261.886719 18.429688 259.148438 17.28125 256.382812 C 16.136719 253.617188 15.058594 250.824219 14.050781 248.003906 C 13.039062 245.183594 12.101562 242.339844 11.230469 239.472656 C 10.363281 236.609375 9.5625 233.722656 8.835938 230.816406 C 8.109375 227.914062 7.453125 224.992188 6.867188 222.054688 C 6.285156 219.117188 5.773438 216.167969 5.332031 213.203125 C 4.894531 210.242188 4.527344 207.269531 4.234375 204.289062 C 3.941406 201.308594 3.71875 198.324219 3.574219 195.332031 C 3.425781 192.339844 3.351562 189.347656 3.351562 186.351562 C 3.351562 183.355469 3.425781 180.363281 3.574219 177.371094 C 3.71875 174.382812 3.941406 171.394531 4.234375 168.414062 C 4.527344 165.433594 4.894531 162.460938 5.332031 159.5 C 5.773438 156.539062 6.285156 153.585938 6.867188 150.652344 C 7.453125 147.714844 8.109375 144.792969 8.835938 141.886719 C 9.5625 138.980469 10.363281 136.097656 11.230469 133.230469 C 12.101562 130.363281 13.039062 127.519531 14.050781 124.699219 C 15.058594 121.882812 16.136719 119.085938 17.28125 116.320312 C 18.429688 113.554688 19.640625 110.816406 20.921875 108.109375 C 22.203125 105.402344 23.546875 102.726562 24.960938 100.085938 C 26.371094 97.445312 27.847656 94.839844 29.386719 92.269531 C 30.925781 89.703125 32.527344 87.171875 34.191406 84.683594 C 35.855469 82.191406 37.582031 79.746094 39.363281 77.339844 C 41.148438 74.933594 42.992188 72.574219 44.890625 70.257812 C 46.789062 67.941406 48.746094 65.675781 50.757812 63.457031 C 52.769531 61.238281 54.832031 59.070312 56.953125 56.953125 C 59.070312 54.832031 61.238281 52.769531 63.457031 50.757812 C 65.675781 48.746094 67.941406 46.789062 70.257812 44.890625 C 72.574219 42.992188 74.933594 41.148438 77.339844 39.363281 C 79.746094 37.582031 82.191406 35.855469 84.683594 34.191406 C 87.171875 32.527344 89.703125 30.925781 92.269531 29.386719 C 94.839844 27.847656 97.445312 26.371094 100.085938 24.960938 C 102.726562 23.546875 105.402344 22.203125 108.109375 20.921875 C 110.816406 19.640625 113.554688 18.429688 116.320312 17.28125 C 119.085938 16.136719 121.882812 15.058594 124.699219 14.050781 C 127.519531 13.039062 130.363281 12.101562 133.230469 11.230469 C 136.097656 10.363281 138.980469 9.5625 141.886719 8.835938 C 144.792969 8.109375 147.714844 7.453125 150.652344 6.867188 C 153.585938 6.285156 156.539062 5.773438 159.5 5.332031 C 162.460938 4.894531 165.433594 4.527344 168.414062 4.234375 C 171.394531 3.941406 174.382812 3.71875 177.371094 3.574219 C 180.363281 3.425781 183.355469 3.351562 186.351562 3.351562 C 189.347656 3.351562 192.339844 3.425781 195.332031 3.574219 C 198.324219 3.71875 201.308594 3.941406 204.289062 4.234375 C 207.269531 4.527344 210.242188 4.894531 213.203125 5.332031 C 216.167969 5.773438 219.117188 6.285156 222.054688 6.867188 C 224.992188 7.453125 227.914062 8.109375 230.816406 8.835938 C 233.722656 9.5625 236.609375 10.363281 239.472656 11.230469 C 242.339844 12.101562 245.183594 13.039062 248.003906 14.050781 C 250.824219 15.058594 253.617188 16.136719 256.382812 17.28125 C 259.148438 18.429688 261.886719 19.640625 264.59375 20.921875 C 267.300781 22.203125 269.976562 23.546875 272.617188 24.960938 C 275.257812 26.371094 277.863281 27.847656 280.433594 29.386719 C 283 30.925781 285.53125 32.527344 288.019531 34.191406 C 290.511719 35.855469 292.960938 37.582031 295.363281 39.363281 C 297.769531 41.148438 300.128906 42.992188 302.445312 44.890625 C 304.761719 46.789062 307.027344 48.746094 309.246094 50.757812 C 311.464844 52.769531 313.632812 54.832031 315.753906 56.953125 C 317.871094 59.070312 319.933594 61.238281 321.945312 63.457031 C 323.957031 65.675781 325.914062 67.941406 327.8125 70.257812 C 329.710938 72.574219 331.554688 74.933594 333.339844 77.339844 C 335.121094 79.746094 336.847656 82.191406 338.511719 84.683594 C 340.175781 87.171875 341.777344 89.703125 343.316406 92.269531 C 344.855469 94.839844 346.332031 97.445312 347.742188 100.085938 C 349.15625 102.726562 350.5 105.402344 351.78125 108.109375 C 353.0625 110.816406 354.277344 113.554688 355.421875 116.320312 C 356.566406 119.085938 357.644531 121.882812 358.65625 124.699219 C 359.664062 127.519531 360.601562 130.363281 361.472656 133.230469 C 362.339844 136.097656 363.140625 138.980469 363.867188 141.886719 C 364.59375 144.792969 365.25 147.714844 365.835938 150.652344 C 366.417969 153.585938 366.933594 156.539062 367.371094 159.5 C 367.8125 162.460938 368.175781 165.433594 368.472656 168.414062 C 368.765625 171.394531 368.984375 174.382812 369.132812 177.371094 C 369.277344 180.363281 369.351562 183.355469 369.351562 186.351562 Z M 369.351562 186.351562 " fill-opacity="1" fill-rule="nonzero"/></g><g clip-path="url(#id2)"><g clip-path="url(#id3)"><g clip-path="url(#id4)"><path fill="#ffffff" d="M 97.675781 240.753906 C 97.675781 240.753906 67.851562 161.660156 207.71875 117.648438 C 287.472656 92.550781 287.996094 47.664062 287.996094 47.664062 C 287.996094 47.664062 294.453125 250.0625 159.15625 262.910156 C 159.15625 262.910156 122.347656 269.277344 104.011719 255.367188 C 104.011719 255.367188 83.230469 293.226562 84.890625 312.019531 L 67.316406 312.039062 C 67.316406 312.039062 100.386719 236.195312 114.386719 227.785156 L 97.671875 240.753906 Z M 97.675781 240.753906 " fill-opacity="1" fill-rule="nonzero"/></g></g></g></svg>