
<svg width="68px" height="68px" viewBox="0 0 68 68" version="1.1" xmlns="http://www.w3.org/2000/svg" xmlns:xlink="http://www.w3.org/1999/xlink">
    <!-- Generator: Sketch 48.2 (47327) - http://www.bohemiancoding.com/sketch -->
    <desc>Created with Sketch.</desc>
    <defs></defs>
    <g id="Page-1" stroke="none" stroke-width="1" fill="none" fill-rule="evenodd">
        <g id="elements" transform="translate(-342.000000, -1512.000000)" fill="#2D3290">
            <path d="M408.104219,1538.79102 L406.66821,1537.81266 C405.083162,1536.7602 404.402417,1534.7344 404.930095,1532.9309 L405.382247,1531.28061 C406.137511,1528.72607 404.399396,1526.09743 401.755971,1525.64781 L400.016849,1525.34639 C398.128688,1525.04498 396.61816,1523.617 396.315047,1521.7394 L396.011934,1520.011 C395.559782,1517.38236 392.916357,1515.73108 390.347452,1516.48212 L388.687884,1517.00684 C386.874243,1517.53057 384.837043,1516.85764 383.778666,1515.35556 L382.728345,1513.85348 C381.143297,1511.67546 378.047721,1511.37404 376.080005,1513.17754 L374.79807,1514.3782 C373.362061,1515.65297 371.324861,1515.95439 369.585739,1514.98004 L368.075211,1514.15489 C365.734898,1512.88013 362.788361,1513.92858 361.729983,1516.40801 L361.050246,1518.0593 C360.369501,1519.8618 358.555859,1520.98836 356.667699,1520.83615 L354.929584,1520.76204 C352.210632,1520.61284 350.020366,1522.86596 350.247952,1525.4946 L350.397998,1527.22399 C350.547037,1529.10159 349.41414,1530.90509 347.679046,1531.65613 L346.093998,1532.33307 C343.600619,1533.38453 342.620789,1536.31459 343.902725,1538.64181 L344.808035,1540.14389 C345.790885,1541.79518 345.563299,1543.89909 344.280357,1545.32707 L343.14746,1546.60283 C341.334826,1548.62864 341.712458,1551.71091 343.978251,1553.21299 L345.413253,1554.19135 C346.999308,1555.2428 347.679046,1557.26961 347.152375,1559.07311 L346.475658,1560.79349 C345.720394,1563.34803 347.459516,1565.97667 350.102941,1566.42629 L351.841056,1566.72771 C353.729217,1567.02913 355.239745,1568.4571 355.542858,1570.3347 L355.845971,1572.0631 C356.298123,1574.69174 358.941548,1576.34303 361.510453,1575.59199 L363.170021,1575.06726 C364.983662,1574.54353 367.020862,1575.21647 368.079239,1576.71855 L369.137616,1578.14652 C370.722664,1580.32454 373.818241,1580.62596 375.784949,1578.82246 L377.067891,1577.6218 C378.5039,1576.34703 380.5411,1576.04561 382.280222,1577.01996 L383.79075,1577.84511 C386.131063,1579.11987 389.077601,1578.07142 390.134971,1575.59199 L390.815716,1573.9407 C391.49646,1572.1382 393.310102,1571.01164 395.198263,1571.16385 L396.936378,1571.23796 C399.655329,1571.38716 401.845596,1569.13404 401.618009,1566.5054 L401.535434,1564.77601 C401.385388,1562.89841 402.518284,1561.09491 404.253378,1560.34387 L405.838426,1559.66693 C408.332812,1558.61547 409.311635,1555.68541 408.0297,1553.35819 L407.125397,1551.85611 C406.141539,1550.20482 406.370132,1548.10091 407.652068,1546.67293 L408.784964,1545.39717 C410.673125,1543.44546 410.295493,1540.2931 408.104219,1538.79102 Z M377.968166,1552.98668 L371.777013,1559.0691 L365.660379,1552.91157 L359.767303,1546.97836 L365.959464,1540.89493 L371.851532,1546.82915 L385.973968,1532.8608 L392.090602,1539.01733 L377.968166,1552.98668 Z" id="Page-1"></path>
        </g>
    </g>
</svg>
